<?xml version="1.0" encoding="UTF-8" standalone="no"?>
<!-- Created with Inkscape (http://www.inkscape.org/) -->

<svg
   xmlns:dc="http://purl.org/dc/elements/1.1/"
   xmlns:cc="http://creativecommons.org/ns#"
   xmlns:rdf="http://www.w3.org/1999/02/22-rdf-syntax-ns#"
   xmlns:svg="http://www.w3.org/2000/svg"
   xmlns="http://www.w3.org/2000/svg"
   xmlns:sodipodi="http://sodipodi.sourceforge.net/DTD/sodipodi-0.dtd"
   xmlns:inkscape="http://www.inkscape.org/namespaces/inkscape"
   version="1.1"
   id="svg4494"
   width="1326.863"
   height="1327.1243"
   viewBox="0 0 1326.863 1327.1243"
   sodipodi:docname="favicon.svg"
   inkscape:version="0.92.1 r15371"
   inkscape:export-filename="/home/mpc/Projects/Studia/4/Aplikacje/BookLibrary/resources/images/favicon.png"
   inkscape:export-xdpi="37.036472"
   inkscape:export-ydpi="37.036472">
  <metadata
     id="metadata4500">
    <rdf:RDF>
      <cc:Work
         rdf:about="">
        <dc:format>image/svg+xml</dc:format>
        <dc:type
           rdf:resource="http://purl.org/dc/dcmitype/StillImage" />
        <dc:title></dc:title>
      </cc:Work>
    </rdf:RDF>
  </metadata>
  <defs
     id="defs4498" />
  <sodipodi:namedview
     pagecolor="#ffffff"
     bordercolor="#666666"
     borderopacity="1"
     objecttolerance="10"
     gridtolerance="10"
     guidetolerance="10"
     inkscape:pageopacity="0"
     inkscape:pageshadow="2"
     inkscape:window-width="2560"
     inkscape:window-height="1023"
     id="namedview4496"
     showgrid="false"
     inkscape:zoom="0.35530601"
     inkscape:cx="412.82888"
     inkscape:cy="824.10985"
     inkscape:window-x="0"
     inkscape:window-y="29"
     inkscape:window-maximized="1"
     inkscape:current-layer="svg4494"
     fit-margin-top="0"
     fit-margin-left="0"
     fit-margin-right="0"
     fit-margin-bottom="0" />
  <rect
     style="fill:#ffffff;fill-opacity:1;stroke:none;stroke-width:0;stroke-miterlimit:4;stroke-dasharray:none"
     id="rect4484"
     width="1137.048"
     height="1176.4507"
     x="130.58543"
     y="86.796539"
     ry="111.429" />
  <path
     style="fill:#0449e8;fill-opacity:1"
     d="m 263.05104,1326.3313 c -83.89048,-0.3795 -157.01548,-1.0112 -162.5,-1.4039 -11.902981,-0.8521 -23.052401,-3.5015 -32.812331,-7.7971 -32.08429,-14.1212 -54.29551,-40.6069 -63.2706502,-75.4469 l -2.52797,-9.8132 -0.97923004,-71 c -1.28096,-92.8766 -1.28122,-902.08026 -3.3e-4,-994.50006 l 0.99096004,-71.499985 2.5174,-9.79397 C 14.474849,46.147922 42.313949,17.178892 80.628529,5.8254019 c 6.5806,-1.94998 12.65773,-2.8784 22.950661,-3.50622 7.7,-0.46966 136.84742,-1.32737996 286.99426,-1.90604996 281.51993,-1.08498 804.45825,0.1123 832.50575,1.90603996 16.5862,1.06074 27.1428,3.91614 42.5,11.4955501 28.039,13.8384 46.8229,37.05799 56.2682,69.555433 2.2566,7.76393 2.5446,11.05457 3.326,37.999995 0.4706,16.225 1.1386,209.725 1.4845,430 0.6834,435.16493 -0.3459,669.58285 -3.0043,684.23855 -8.1662,45.0195 -43.4777,80.2434 -88.5744,88.3548 -7.2601,1.3059 -32.6417,1.6592 -174,2.4219 -186.58077,1.0068 -569.23858,0.9808 -798.02816,-0.054 z m 437.52815,-142.9618 c 49.58734,-1.5515 76.4334,-3.8852 110,-9.5624 65.48717,-11.0759 119.22395,-29.4585 160.18893,-54.7984 22.57492,-13.9643 64.33908,-55.2945 80.52358,-79.687 24.7417,-37.2895 39.5864,-79.71231 45.998,-131.45155 1.9177,-15.47553 1.5788,-63.09778 -0.5586,-78.5 -9.5204,-68.60311 -38.3962,-115.10151 -94.4942,-152.16314 -41.52639,-27.43479 -95.3714,-43.69542 -156.65771,-47.30899 -5.5,-0.32429 -13.15,-0.86296 -17,-1.19704 l -7,-0.60742 12.01474,-3.20086 c 51.92638,-13.83378 88.07088,-34.16383 123.56309,-69.50001 33.76011,-33.61171 55.15478,-71.06672 65.41648,-114.52254 3.8972,-16.50355 4.6049,-23.72186 5.1965,-53 1.1168,-55.26299 -2.6063,-77.91515 -18.0792,-110 -13.42166,-27.83133 -28.62723,-47.6445 -50.71216,-66.07902 -17.12916,-14.29788 -43.42898,-29.10762 -67.38902,-37.94755 -38.47681,-14.19583 -101.91002,-25.64769 -157.51043,-28.43602 -50.40958,-2.52802 -141.88348,-2.04458 -178.93361,0.94567 -27.98114,2.2583 -133.02238,4.59413 -248.56639,5.52742 -39.05,0.31542 -72.93981,0.81126 -75.31068,1.10186 l -4.31069,0.52838 0.33255,40.67963 c 0.1829,22.3738 0.70678,41.46302 1.16417,42.42049 0.45739,0.95748 2.49126,2.23811 4.51971,2.84585 2.02846,0.60774 25.71939,4.78488 52.64652,9.28255 l 48.95842,8.17757 0.60657,68.97658 c 1.46595,166.70186 0.46885,750.23454 -1.28494,751.98834 -0.39229,0.3923 -41.42337,5.8083 -99.08786,13.0794 -3.44052,0.4339 -5.10605,1.2002 -5.98794,2.755 -0.88959,1.5684 -1.31819,13.187 -1.57665,42.7404 l -0.35494,40.5865 32.34288,0.6618 c 17.78858,0.364 63.84288,0.6655 102.34288,0.6701 77.74622,0.01 145.65297,1.185 203,3.5151 61.14164,2.4843 92.85435,2.8293 136,1.4793 z m -91.79126,-88.0253 c -16.88039,-1.0087 -41.6518,-4.0514 -59.20874,-7.2724 l -12,-2.2016 -0.25253,-194.25005 -0.25252,-194.25 4.25252,0.0235 c 59.15687,0.32721 176.68527,2.19476 187.87956,2.98545 28.18058,1.9905 40.91466,5.32779 64.40666,16.87944 16.44012,8.08405 25.74642,14.45534 37.26063,25.50944 11.56215,11.10013 19.32593,21.77458 26.20345,36.02722 13.76153,28.51872 17.01733,49.62984 16.976,110.07493 -0.0305,44.63619 -1.45632,56.75812 -9.58615,81.49995 -22.47504,68.39952 -70.75844,108.65192 -144.50587,120.47032 -25.89283,4.1494 -80.25281,6.3517 -111.17301,4.5038 z m -53.95874,-496.64969 -17.75,-0.37051 V 416.01788 233.71175 l 12.75,-1.18349 c 41.49556,-3.85172 137.46403,-3.43373 156.75,0.68274 25.07246,5.35155 48.47166,15.15148 66,27.64178 8.01073,5.70826 21.91714,20.31645 27.82023,29.22415 6.29085,9.49284 12.61559,23.21826 16.95448,36.79322 5.59878,17.51675 7.41842,32.83911 8.37236,70.5 1.27334,50.27076 -4.47944,83.43232 -20.28412,116.92656 -14.63502,31.01542 -36.71142,54.18039 -64.86295,68.06128 -18.25186,8.99959 -33.36849,12.78105 -60,15.00914 -13.43913,1.12436 -94.48925,1.97991 -125.75,1.32738 z"
     id="path4482"
     inkscape:connector-curvature="0" />
</svg>
